HIERARCHY
ROOT Hips
{
	OFFSET 0.0000 0.0000 0.0000
	CHANNELS 6 Xposition Yposition Zposition Zrotation Xrotation Yrotation
	JOINT Spine1
	{
		OFFSET -0.0137 5.0038 -0.0537
		CHANNELS 3 Zrotation Xrotation Yrotation
		JOINT Spine2
		{
			OFFSET -0.0000 7.1253 -0.0298
			CHANNELS 3 Zrotation Xrotation Yrotation
			JOINT Chest
			{
				OFFSET -0.0000 7.5501 -0.8160
				CHANNELS 3 Zrotation Xrotation Yrotation
				JOINT Neck1
				{
					OFFSET -0.1817 26.3113 -0.5533
					CHANNELS 3 Zrotation Xrotation Yrotation
					JOINT Neck2
					{
						OFFSET -0.0000 7.7094 2.3026
						CHANNELS 3 Zrotation Xrotation Yrotation
						JOINT Head
						{
							OFFSET -0.0000 6.1289 1.9537
							CHANNELS 3 Zrotation Xrotation Yrotation
							JOINT Jaw
							{
								OFFSET 0.0026 0.4756 3.0949
								CHANNELS 3 Zrotation Xrotation Yrotation
								End Site
								{
									OFFSET 0.0 1.0 0.0
								}
							}
							JOINT LeftEye
							{
								OFFSET 3.2064 5.3802 7.5869
								CHANNELS 3 Zrotation Xrotation Yrotation
								End Site
								{
									OFFSET 0.0 1.0 0.0
								}
							}
							JOINT RightEye
							{
								OFFSET -3.2224 5.3619 7.5582
								CHANNELS 3 Zrotation Xrotation Yrotation
								End Site
								{
									OFFSET 0.0 1.0 0.0
								}
							}
						}
					}
				}
				JOINT LeftShoulder
				{
					OFFSET 1.6217 23.2372 5.1134
					CHANNELS 3 Zrotation Xrotation Yrotation
					JOINT LeftArm
					{
						OFFSET 14.9198 0.0000 -5.5023
						CHANNELS 3 Zrotation Xrotation Yrotation
						JOINT LeftForeArm
						{
							OFFSET 28.7393 0.0000 -0.0026
							CHANNELS 3 Zrotation Xrotation Yrotation
							JOINT LeftHand
							{
								OFFSET 27.0940 -0.0000 0.0026
								CHANNELS 3 Zrotation Xrotation Yrotation
								JOINT LeftHandThumbEnd
								{
									OFFSET 12.2686 -3.2202 4.8331
									CHANNELS 3 Zrotation Xrotation Yrotation
									End Site
									{
										OFFSET 0.0 1.0 0.0
									}
								}
								JOINT LeftHandMiddleEnd
								{
									OFFSET 19.0120 -0.3129 -0.0340
									CHANNELS 3 Zrotation Xrotation Yrotation
									End Site
									{
										OFFSET 0.0 1.0 0.0
									}
								}
							}
						}
					}
				}
				JOINT RightShoulder
				{
					OFFSET -1.3801 23.1803 5.2142
					CHANNELS 3 Zrotation Xrotation Yrotation
					JOINT RightArm
					{
						OFFSET -15.0372 0.0000 -5.5456
						CHANNELS 3 Zrotation Xrotation Yrotation
						JOINT RightForeArm
						{
							OFFSET -28.7366 0.0000 -0.0026
							CHANNELS 3 Zrotation Xrotation Yrotation
							JOINT RightHand
							{
								OFFSET -27.1336 -0.0000 0.0026
								CHANNELS 3 Zrotation Xrotation Yrotation
								JOINT RightHandThumbEnd
								{
									OFFSET -12.2642 -3.2115 4.8040
									CHANNELS 3 Zrotation Xrotation Yrotation
									End Site
									{
										OFFSET 0.0 1.0 0.0
									}
								}
								JOINT RightHandMiddleEnd
								{
									OFFSET -19.0006 -0.3066 -0.0316
									CHANNELS 3 Zrotation Xrotation Yrotation
									End Site
									{
										OFFSET 0.0 1.0 0.0
									}
								}
							}
						}
					}
				}
			}
		}
	}
	JOINT LeftLeg
	{
		OFFSET 10.0432 -8.4345 2.5957
		CHANNELS 3 Zrotation Xrotation Yrotation
		JOINT LeftShin
		{
			OFFSET -0.0000 -43.2218 -0.8029
			CHANNELS 3 Zrotation Xrotation Yrotation
			JOINT LeftFoot
			{
				OFFSET 0.0000 -42.1551 -3.4815
				CHANNELS 3 Zrotation Xrotation Yrotation
				JOINT LeftToeBase
				{
					OFFSET 0.0000 -5.0595 13.2315
					CHANNELS 3 Zrotation Xrotation Yrotation
					End Site
					{
						OFFSET 0.0 1.0 0.0
					}
				}
			}
		}
	}
	JOINT RightLeg
	{
		OFFSET -10.0473 -8.2953 2.6203
		CHANNELS 3 Zrotation Xrotation Yrotation
		JOINT RightShin
		{
			OFFSET 0.0000 -43.3622 -0.8056
			CHANNELS 3 Zrotation Xrotation Yrotation
			JOINT RightFoot
			{
				OFFSET 0.0000 -42.1174 -3.4784
				CHANNELS 3 Zrotation Xrotation Yrotation
				JOINT RightToeBase
				{
					OFFSET -0.0000 -5.0796 13.2842
					CHANNELS 3 Zrotation Xrotation Yrotation
					End Site
					{
						OFFSET 0.0 1.0 0.0
					}
				}
			}
		}
	}
}
MOTION
Frames: 15
Frame Time: 0.033333
0.5097 99.7722 0.2403 -0.1275 -3.6020 1.1726 0.4285 0.4532 0.0518 -0.4008 -5.0169 0.1930 -0.3828 13.7599 -2.0556 0.2845 11.6110 2.9652 -0.5968 -3.6048 -0.0625 1.3920 -15.2481 -1.8298 0.0134 0.0861 -0.0090 0.6464 -10.4166 -3.8743 -0.6219 -10.4268 3.8647 -16.8101 14.3505 -10.1082 -54.1724 4.0576 -19.5649 0.3603 0.3762 -39.4383 0.4122 -10.9820 2.7831 -15.2858 10.7839 15.7071 -60.2004 1.7654 2.3162 18.3227 13.1927 17.5832 52.6005 6.4398 23.1889 -0.2502 0.0514 37.7361 3.3726 -11.2659 -2.4457 15.4640 7.2909 -16.4438 49.6225 -3.7065 -5.3949 6.0264 -0.6235 6.1978 -0.0544 9.6202 -0.0884 -8.3570 -5.0782 3.1450 1.6628 0.0336 -2.0471 -3.6339 -4.0179 -4.2190 -0.0479 12.6251 -0.0062 7.2908 -4.6476 -4.5979 -1.4078 0.2077 1.0397
0.4811 99.8190 0.1467 -0.1379 -3.5586 1.2804 0.4007 0.4473 0.0347 -0.4075 -5.0262 0.2135 -0.3870 13.6980 -2.0410 0.4636 11.7106 2.9652 -0.6281 -3.6004 -0.1423 1.4315 -15.1979 -1.8952 0.0127 0.0873 -0.0198 0.6440 -10.4098 -3.8841 -0.6207 -10.4154 3.8532 -16.7515 14.3532 -10.0738 -54.2633 4.1985 -19.5856 0.3175 0.3536 -40.0549 0.5117 -10.9480 2.4735 -15.2431 10.7789 15.7218 -60.1062 1.7493 2.3102 18.3426 13.2646 17.5453 52.5658 6.7086 23.4130 -0.3078 0.0750 37.8522 3.3069 -11.0885 -2.4493 15.4748 7.2814 -16.4409 49.6295 -3.6947 -5.3962 6.0288 -0.6167 6.1074 -0.0631 9.3414 -0.0992 -8.3549 -4.8181 3.1161 1.6629 -0.0001 -2.0307 -3.6053 -3.9785 -4.1690 -0.0505 12.3637 -0.0289 7.2904 -4.4764 -4.7650 -1.4067 0.1596 1.0289
0.4483 99.8769 0.0475 -0.1755 -3.4732 1.3596 0.3824 0.4096 0.0108 -0.4188 -5.0418 0.2409 -0.3805 13.6011 -2.0053 0.6527 11.7632 2.9540 -0.6563 -3.6104 -0.2063 1.4595 -15.1287 -1.9505 0.0127 0.0875 -0.0221 0.6460 -10.4073 -3.8865 -0.6225 -10.4076 3.8501 -16.7157 14.3565 -10.0171 -54.3159 4.4360 -19.5191 0.3099 0.3168 -40.6670 0.5986 -10.8330 2.1472 -15.2173 10.7799 15.7335 -60.0416 1.7582 2.2872 18.3965 13.2862 17.4769 52.6326 7.0495 23.7000 -0.4381 0.1295 38.0123 3.2727 -10.8478 -2.4968 15.4862 7.2891 -16.4374 49.6286 -3.6764 -5.3706 6.0785 -0.5774 6.0039 -0.0707 8.9097 -0.1125 -8.3889 -4.4848 3.1258 1.6650 -0.0294 -2.0159 -3.5214 -3.9016 -4.1097 -0.0525 11.9595 -0.0483 7.2733 -4.2238 -4.9404 -1.4084 0.0946 1.0169
0.3698 99.9437 -0.0225 -0.2366 -3.3602 1.4486 0.3640 0.3549 -0.0020 -0.4289 -5.0647 0.2501 -0.3614 13.4787 -1.9750 0.8324 11.7736 2.9299 -0.6863 -3.6224 -0.2399 1.4592 -15.0125 -2.0083 0.0128 0.0874 -0.0186 0.6466 -10.4099 -3.8838 -0.6227 -10.4068 3.8533 -16.6737 14.3532 -9.9517 -54.3452 4.7764 -19.4077 0.3319 0.2775 -41.1946 0.6529 -10.6328 1.9452 -15.2025 10.7894 15.7375 -60.0166 1.7914 2.2407 18.4905 13.2860 17.4019 52.7476 7.3230 23.8663 -0.5461 0.1725 38.2933 3.2484 -10.5520 -2.5565 15.5080 7.3060 -16.4292 49.6272 -3.6623 -5.3486 6.1638 -0.5154 5.8868 -0.0771 8.3888 -0.1231 -8.4326 -4.1392 3.1477 1.6674 -0.0512 -2.0028 -3.3865 -3.8190 -4.0884 -0.0550 11.4908 -0.0652 7.2417 -3.9273 -5.0830 -1.4115 0.0398 1.0062
0.2854 100.0163 -0.1034 -0.3098 -3.2469 1.5281 0.3521 0.3088 0.0042 -0.4438 -5.0882 0.2328 -0.3307 13.3633 -1.9419 0.9564 11.7622 2.8847 -0.6868 -3.6382 -0.2681 1.4309 -14.9174 -2.0629 0.0134 0.0849 -0.0155 0.6473 -10.4132 -3.8811 -0.6221 -10.4106 3.8555 -16.6201 14.3698 -9.9041 -54.3279 5.1593 -19.2782 0.3961 0.2451 -41.5704 0.6677 -10.4220 1.8787 -15.2035 10.8053 15.7319 -60.0221 1.8133 2.2137 18.5916 13.2688 17.2990 52.9046 7.4678 23.8246 -0.6001 0.1960 38.7624 3.1901 -10.3362 -2.5727 15.5083 7.3081 -16.4167 49.6082 -3.6625 -5.3303 6.2740 -0.4872 5.7621 -0.0807 7.9397 -0.1288 -8.4845 -3.8601 3.1526 1.6685 -0.0237 -1.9896 -3.2279 -3.7725 -4.0976 -0.0515 11.0921 -0.0726 7.2316 -3.6881 -5.2002 -1.4148 0.0057 1.0043
0.1761 100.0609 -0.1949 -0.3822 -3.1535 1.6006 0.3466 0.2803 0.0078 -0.4541 -5.0945 0.1956 -0.3037 13.2527 -1.9120 1.0207 11.7295 2.8291 -0.6883 -3.6558 -0.2980 1.3848 -14.8523 -2.1367 0.0124 0.0826 -0.0198 0.6441 -10.4225 -3.8873 -0.6210 -10.4235 3.8525 -16.5410 14.3875 -9.8413 -54.2594 5.5308 -19.0881 0.4321 0.2191 -41.7821 0.6821 -10.2322 1.8789 -15.2163 10.8295 15.7544 -60.0467 1.8219 2.2344 18.6650 13.2306 17.1499 53.0658 7.5233 23.6737 -0.6108 0.2031 39.3696 3.1315 -10.2683 -2.5221 15.5067 7.3007 -16.4134 49.6153 -3.6655 -5.3304 6.3998 -0.5033 5.6319 -0.0798 7.6088 -0.1281 -8.5462 -3.6509 3.1445 1.6678 0.0290 -1.9773 -3.0552 -3.7726 -4.1161 -0.0531 10.8146 -0.0707 7.2056 -3.5158 -5.3180 -1.4163 0.0058 1.0116
0.0644 100.0798 -0.2908 -0.4361 -3.0903 1.6718 0.3474 0.2710 -0.0043 -0.4612 -5.0843 0.1686 -0.2801 13.1629 -1.8905 1.0265 11.7242 2.7982 -0.6978 -3.6648 -0.3998 1.3456 -14.8437 -2.2159 0.0116 0.0802 -0.0322 0.6414 -10.4224 -3.9003 -0.6201 -10.4273 3.8395 -16.4390 14.4122 -9.7782 -54.1874 5.8102 -18.8287 0.4534 0.2114 -41.8148 0.7396 -10.1416 1.9234 -15.2182 10.8412 15.7659 -60.0463 1.8112 2.2755 18.6800 13.1839 16.9807 53.2324 7.4938 23.4886 -0.6053 0.2162 39.9812 3.0275 -10.3263 -2.4625 15.4840 7.2771 -16.3953 49.5904 -3.6714 -5.3284 6.5142 -0.5541 5.4604 -0.0766 7.4195 -0.1203 -8.6088 -3.4948 3.1329 1.6680 0.0578 -1.9740 -2.9111 -3.8312 -4.1492 -0.0496 10.7030 -0.0575 7.1579 -3.4046 -5.4048 -1.4174 -0.0122 1.0237
-0.0596 100.0812 -0.4159 -0.4723 -3.0772 1.7070 0.3599 0.3070 0.0006 -0.4633 -5.0721 0.1455 -0.2660 13.1073 -1.8828 1.0011 11.7492 2.7939 -0.7254 -3.6763 -0.5032 1.3220 -14.9063 -2.3287 0.0115 0.0759 -0.0434 0.6427 -10.4301 -3.9122 -0.6214 -10.4374 3.8297 -16.3112 14.4381 -9.6978 -54.1225 5.9826 -18.3686 0.4233 0.1975 -41.8108 0.8369 -10.0844 2.0143 -15.2421 10.8436 15.7629 -60.0477 1.8031 2.2945 18.6291 13.1741 16.8449 53.3560 7.3659 23.2364 -0.5477 0.2237 40.6172 2.8338 -10.4492 -2.3883 15.4489 7.2507 -16.3735 49.5642 -3.6728 -5.3312 6.6226 -0.6296 5.3080 -0.0745 7.3838 -0.1209 -8.6774 -3.3802 3.1718 1.6679 0.0622 -1.9818 -2.7781 -3.9217 -4.1412 -0.0492 10.7435 -0.0558 7.0962 -3.3770 -5.4795 -1.4179 -0.0232 1.0415
-0.1950 100.0768 -0.5232 -0.4954 -3.0936 1.6910 0.3864 0.3803 -0.0005 -0.4573 -5.0703 0.1459 -0.2508 13.0840 -1.8651 0.9391 11.8079 2.7895 -0.7642 -3.6722 -0.6059 1.3078 -15.0134 -2.4538 0.0111 0.0713 -0.0469 0.6441 -10.4426 -3.9164 -0.6238 -10.4515 3.8271 -16.1760 14.4982 -9.6054 -54.0754 6.0302 -17.8152 0.3856 0.1806 -41.7771 0.9396 -10.0431 2.1137 -15.2576 10.8420 15.7532 -60.0920 1.7910 2.2801 18.5141 13.1947 16.7325 53.4627 7.1377 22.9689 -0.5169 0.2220 41.1151 2.6107 -10.6118 -2.2973 15.4301 7.2441 -16.3511 49.5577 -3.6658 -5.3119 6.7273 -0.7172 5.1776 -0.0728 7.4427 -0.1177 -8.7624 -3.3125 3.2209 1.6681 0.0621 -1.9934 -2.6537 -4.0527 -4.1169 -0.0492 10.9031 -0.0600 7.0124 -3.4070 -5.5157 -1.4166 -0.0474 1.0502
-0.3253 100.0443 -0.6263 -0.5029 -3.1378 1.6621 0.4241 0.4764 -0.0026 -0.4431 -5.0549 0.1808 -0.2314 13.0757 -1.8565 0.8508 11.9108 2.7738 -0.8065 -3.6690 -0.6956 1.2870 -15.1410 -2.5540 0.0110 0.0669 -0.0377 0.6481 -10.4505 -3.9065 -0.6285 -10.4596 3.8359 -16.0367 14.5879 -9.5015 -54.0535 5.9916 -17.1945 0.3453 0.1703 -41.7607 1.0625 -9.9996 2.1962 -15.2582 10.8294 15.7325 -60.1307 1.7852 2.2495 18.3602 13.2338 16.6272 53.5203 6.8291 22.6638 -0.4912 0.2137 41.4557 2.4046 -10.8351 -2.2150 15.3870 7.2433 -16.3355 49.5582 -3.6545 -5.2929 6.8263 -0.8013 5.0349 -0.0743 7.5612 -0.1152 -8.8514 -3.2795 3.2989 1.6668 0.0553 -2.0049 -2.5459 -4.2049 -4.1228 -0.0447 11.1582 -0.0527 6.9255 -3.5146 -5.5034 -1.4136 -0.0648 1.0556
-0.4531 99.9960 -0.7539 -0.4997 -3.1806 1.6240 0.4802 0.5712 -0.0017 -0.4265 -5.0307 0.2060 -0.2043 13.0879 -1.8377 0.7278 12.0077 2.7905 -0.8401 -3.6638 -0.7884 1.2426 -15.2347 -2.6354 0.0117 0.0652 -0.0326 0.6524 -10.4535 -3.9020 -0.6313 -10.4628 3.8418 -15.9175 14.6708 -9.3928 -54.0586 5.9221 -16.5909 0.3098 0.1788 -41.7339 1.1868 -9.9546 2.2595 -15.2644 10.8012 15.7018 -60.1282 1.7616 2.2214 18.1936 13.2792 16.5521 53.5278 6.4765 22.3297 -0.4499 0.1868 41.6467 2.2263 -11.0319 -2.1580 15.3715 7.2461 -16.3224 49.5550 -3.6380 -5.2626 6.9274 -0.9155 4.9483 -0.0756 7.7312 -0.1163 -8.9423 -3.2907 3.3452 1.6656 0.0610 -2.0148 -2.4484 -4.3931 -4.1600 -0.0391 11.4779 -0.0561 6.8557 -3.6540 -5.4273 -1.4110 -0.0766 1.0673
-0.6107 99.9480 -0.8779 -0.4870 -3.2199 1.5963 0.5515 0.6592 -0.0105 -0.4109 -4.9978 0.2384 -0.1662 13.0985 -1.8247 0.5792 12.1209 2.8288 -0.8713 -3.6677 -0.8824 1.2061 -15.3282 -2.7088 0.0117 0.0670 -0.0274 0.6535 -10.4484 -3.8963 -0.6326 -10.4556 3.8465 -15.8082 14.7414 -9.2892 -54.0980 5.8574 -16.0329 0.2872 0.1916 -41.6928 1.2871 -9.9008 2.3094 -15.3009 10.7874 15.6780 -60.1475 1.7394 2.2018 18.0287 13.3523 16.5155 53.5212 6.1402 22.0728 -0.4645 0.1635 41.6516 2.0925 -11.2089 -2.1209 15.3674 7.2561 -16.3090 49.5689 -3.6284 -5.2482 7.0209 -1.0465 4.8752 -0.0747 7.9226 -0.1035 -9.0239 -3.3414 3.3791 1.6648 0.0827 -2.0218 -2.3522 -4.6077 -4.2204 -0.0358 11.8325 -0.0622 6.7539 -3.8184 -5.3523 -1.4076 -0.0401 1.0707
-0.7578 99.9062 -0.9931 -0.4684 -3.2456 1.6037 0.6401 0.7386 -0.0130 -0.3881 -4.9797 0.2622 -0.1275 13.1474 -1.8158 0.3852 12.2323 2.8742 -0.8987 -3.6688 -0.9754 1.1771 -15.4338 -2.7724 0.0127 0.0675 -0.0241 0.6533 -10.4511 -3.8930 -0.6305 -10.4572 3.8493 -15.7328 14.8103 -9.1857 -54.1243 5.7909 -15.5330 0.2733 0.1889 -41.7025 1.3715 -9.8613 2.3832 -15.3282 10.7844 15.6514 -60.1941 1.7269 2.1749 17.8698 13.4649 16.5434 53.4727 5.7756 21.7799 -0.4454 0.1245 41.5557 1.9796 -11.3742 -2.0751 15.3917 7.2728 -16.3083 49.6031 -3.5966 -5.2461 7.1178 -1.2019 4.8109 -0.0729 8.1233 -0.0872 -9.1020 -3.3780 3.3704 1.6665 0.0914 -2.0212 -2.2513 -4.8316 -4.2486 -0.0341 12.1985 -0.0720 6.6424 -3.9619 -5.3087 -1.4059 -0.0158 1.0768
-0.9332 99.8704 -1.1083 -0.4457 -3.2639 1.6397 0.7430 0.8173 -0.0121 -0.3588 -4.9554 0.2844 -0.0876 13.1829 -1.8169 0.1535 12.3399 2.9186 -0.9170 -3.6653 -1.0581 1.1571 -15.5274 -2.8372 0.0136 0.0676 -0.0219 0.6506 -10.4465 -3.8906 -0.6263 -10.4525 3.8507 -15.6714 14.8677 -9.0882 -54.1748 5.7114 -15.0929 0.2581 0.1977 -41.6892 1.4344 -9.8119 2.4531 -15.3246 10.7821 15.6401 -60.1951 1.7185 2.1687 17.7132 13.5817 16.5926 53.4464 5.4453 21.5296 -0.4371 0.1090 41.2725 1.9342 -11.5885 -2.0509 15.3877 7.2806 -16.3031 49.5988 -3.5813 -5.2465 7.2099 -1.3530 4.7405 -0.0720 8.2988 -0.0809 -9.1935 -3.3916 3.3447 1.6688 0.0919 -2.0184 -2.1423 -5.0454 -4.2599 -0.0366 12.5373 -0.0779 6.5066 -4.1008 -5.3194 -1.4039 0.0071 1.0800
-1.1283 99.8395 -1.1886 -0.4234 -3.2775 1.6878 0.8662 0.8953 -0.0192 -0.3355 -4.9275 0.3169 -0.0510 13.2079 -1.8334 -0.0911 12.4443 2.9719 -0.9276 -3.6630 -1.1287 1.1114 -15.6231 -2.8843 0.0150 0.0674 -0.0244 0.6479 -10.4380 -3.8908 -0.6208 -10.4443 3.8453 -15.6155 14.9173 -8.9989 -54.2809 5.5673 -14.6666 0.1965 0.1956 -41.6388 1.5376 -9.7272 2.4930 -15.3092 10.7753 15.6422 -60.1746 1.7144 2.1867 17.5515 13.6903 16.6579 53.4393 5.2010 21.3950 -0.4282 0.0981 40.8687 1.9179 -11.7773 -2.0326 15.3925 7.2950 -16.3098 49.6417 -3.5616 -5.2572 7.3168 -1.5065 4.6832 -0.0727 8.4741 -0.0887 -9.3054 -3.4122 3.2999 1.6718 0.0899 -2.0144 -2.0306 -5.2390 -4.2620 -0.0407 12.8581 -0.0835 6.3602 -4.2560 -5.3649 -1.4041 0.0359 1.0824
